Coordinates
version=1
nRows=10
nColumns=40
inDegrees=yes

Units are S.I. units (second, meters, Newtons, ...)
Angles are in degrees.

endheader
time	pelvis_tilt	pelvis_list	pelvis_rotation	pelvis_tx	pelvis_ty	pelvis_tz	hip_flexion_r	hip_adduction_r	hip_rotation_r	knee_angle_r	knee_angle_r_beta	ankle_angle_r	subtalar_angle_r	mtp_angle_r	hip_flexion_l	hip_adduction_l	hip_rotation_l	knee_angle_l	knee_angle_l_beta	ankle_angle_l	subtalar_angle_l	mtp_angle_l	lumbar_extension	lumbar_bending	lumbar_rotation	arm_flex_r	arm_add_r	arm_rot_r	elbow_flex_r	pro_sup_r	wrist_flex_r	wrist_dev_r	arm_flex_l	arm_add_l	arm_rot_l	elbow_flex_l	pro_sup_l	wrist_flex_l	wrist_dev_l
     27.21314286	     -1.52999145	     -4.10656493	     -0.70380645	      0.89857668	      0.92206379	      0.51346228	     13.85872637	      4.38199551	     -8.06891744	     26.06531865	     26.06531865	     15.27981130	     -8.38647677	     -1.78727637	     28.43171921	    -10.57929685	      1.19302840	     60.83320282	     60.83320282	     16.33985452	    -19.56088053	     22.00380503	    -11.46484512	      6.01384086	     -0.06930056	      9.93554286	    -16.70347476	    -17.47475747	     38.93494433	     46.35288686	      0.00000000	      0.00000000	     15.14155173	    -12.17196613	     -6.24261977	     48.01541698	     46.94205832	      0.00000000	      0.00000000
     27.23128571	     -1.50386945	     -4.02815525	     -0.06793417	      0.89680683	      0.92151938	      0.51421047	     13.72504702	      4.38452825	     -8.15661652	     26.35041100	     26.35041100	     15.67632216	     -9.18964614	     -1.31781547	     29.45269615	    -10.28905701	      1.34204896	     58.55152967	     58.55152967	     17.01611402	    -19.56280985	     22.56520510	    -11.46964682	      5.68260214	      0.73372291	     10.89941181	    -17.16827881	    -16.22708884	     42.06609984	     46.14696052	      0.00000000	      0.00000000	     15.24851032	    -10.91816445	     -4.63490362	     41.27246354	     46.73759325	      0.00000000	      0.00000000
     27.24942857	     -1.50724691	     -3.82548349	      0.56741198	      0.89501609	      0.92103642	      0.51470304	     13.60702284	      4.20369671	     -8.32557762	     26.62164117	     26.62164117	     15.98866412	     -9.78798431	     -1.30318855	     30.23572379	     -9.72167147	      1.48396525	     55.69408933	     55.69408933	     17.19560732	    -19.55005114	     22.35084241	    -11.56184671	      5.18698466	      0.20644234	     13.34984135	    -16.69536224	    -16.13534024	     44.36710433	     46.06418316	      0.00000000	      0.00000000	     13.00023279	    -10.45011719	     -4.13143032	     38.90755963	     46.63996374	      0.00000000	      0.00000000
     27.26757143	     -1.62354312	     -3.73333395	      1.17620767	      0.89310681	      0.92056663	      0.51497138	     13.53212954	      4.11118939	     -8.61565927	     26.73624127	     26.73624127	     16.31449812	    -10.15125401	     -1.02644044	     30.94101090	     -9.16640580	      1.70939962	     52.41954667	     52.41954667	     16.62416236	    -19.49936522	     20.84278869	    -11.55086118	      4.87485740	      0.61093991	     14.50030524	    -17.06027818	    -15.10195466	     48.63049475	     45.84872935	      0.00000000	      0.00000000	     12.23627838	     -9.47539002	     -2.93270554	     33.70432538	     46.46962403	      0.00000000	      0.00000000
     27.28571429	     -1.77303209	     -3.53659511	      1.75377194	      0.89121241	      0.92030460	      0.51498170	     13.43114149	      3.87607869	     -8.92102189	     26.75130726	     26.75130726	     16.54486869	    -10.41126841	     -1.02877276	     31.47797193	     -8.32265274	      2.13638319	     48.92334255	     48.92334255	     16.15717132	    -19.40347894	     20.58381053	    -11.54103006	      4.41521883	      0.11688223	     17.05115164	    -16.55902153	    -15.05680414	     51.14796722	     45.76580898	      0.00000000	      0.00000000	      9.87655290	     -9.01303710	     -2.54187334	     31.60051862	     46.37837398	      0.00000000	      0.00000000
     27.30385714	     -1.97589990	     -3.37585937	      2.27538928	      0.88938315	      0.92019434	      0.51479377	     13.28510520	      3.65190550	     -9.30589728	     26.59469904	     26.59469904	     16.73212925	    -10.41294289	     -1.03434149	     31.85551409	     -7.45410279	      2.71081592	     45.24458742	     45.24458742	     15.21644659	    -19.21855859	     19.72784299	    -11.47880429	      4.00007091	     -0.24777841	     19.44877089	    -16.16493229	    -14.79358082	     54.07719459	     45.65958752	      0.00000000	      0.00000000	      7.64598643	     -8.51797492	     -2.11136497	     29.30965353	     46.28128025	      0.00000000	      0.00000000
     27.32200000	     -2.19502503	     -3.26116139	      2.76341056	      0.88769846	      0.92030237	      0.51445432	     13.06992974	      3.45587968	     -9.77414065	     26.30494321	     26.30494321	     16.90784159	    -10.19828254	     -1.07504276	     32.01877578	     -6.64377761	      3.37833966	     41.41999970	     41.41999970	     13.81687949	    -18.87717024	     18.18303813	    -11.41419791	      3.65670055	     -0.53394826	     21.63518049	    -15.89765758	    -14.32725470	     57.59061056	     45.52605608	      0.00000000	      0.00000000	      5.49747122	     -8.00182448	     -1.63082177	     27.00409490	     46.17406979	      0.00000000	      0.00000000
     27.34014286	     -2.47359432	     -3.23756679	      3.13578256	      0.88628952	      0.92041195	      0.51406707	     12.79633641	      3.36936307	    -10.21935635	     25.80528220	     25.80528220	     17.00568872	     -9.85146893	     -1.20596260	     31.96589557	     -6.11736829	      3.81353831	     37.39769476	     37.39769476	     10.89485862	    -18.36068643	     12.54040881	    -11.29955973	      3.44142027	      0.48678709	     22.24414589	    -16.97582272	    -13.30272120	     63.31146828	     45.30157470	      0.00000000	      0.00000000	      4.10174072	     -7.28076784	     -0.44427466	     24.46860873	     45.95319547	      0.00000000	      0.00000000
     27.35828571	     -2.69758745	     -3.16580536	      3.47315886	      0.88512143	      0.92092432	      0.51354767	     12.35432677	      3.27400449	    -10.54102170	     25.13138466	     25.13138466	     17.05503104	     -9.58430189	     -1.18575704	     31.89465353	     -5.54497054	      4.39545754	     33.98885330	     33.98885330	     10.16561619	    -17.04972021	     12.40681674	    -11.16568201	      3.11748391	      0.37210381	     24.73073870	    -16.60308082	    -13.38728469	     65.84945702	     45.23208772	      0.00000000	      0.00000000	      1.68419140	     -6.93600775	     -0.16235391	     23.28035317	     45.85819070	      0.00000000	      0.00000000
     27.37642857	     -2.93145742	     -3.20253610	      3.80319339	      0.88424264	      0.92143856	      0.51288829	     11.83200864	      3.26994381	    -11.01364695	     24.32257044	     24.32257044	     17.11079271	     -9.02112234	     -1.28450229	     31.80947281	     -5.26342816	      4.65863356	     30.94666927	     30.94666927	      9.44229261	    -15.09384225	     11.48027687	    -11.02613591	      2.97136976	      0.26102320	     26.99154960	    -16.35986651	    -13.18373344	     69.25730422	     45.12489786	      0.00000000	      0.00000000	     -0.78714065	     -6.60983049	      0.18738804	     22.44173631	     45.74082770	      0.00000000	      0.00000000
